# xmcd CD database file
#
# Track frame offsets:
#	150
#	11237
#	26252
#	56397
#	73610
#	91037
#	121305
#	159925
#
# Disc length: 2636 seconds
#
# Revision: 6
# Processed by: cddbd v1.5.2PL0 Copyright (c) Steve Scherf et al.
# Submitted via: CDex 1.51
#
DISCID=550a4a08
DTITLE=John Mayall - Primal Solos - Legendary Performances From The Archives with Eric Clapton - Mick Taylor - Jack Bruce
DYEAR=1969
DGENRE=Blues
TTITLE0=Intro - Maudie
TTITLE1=It Hurts To Be In Love
TTITLE2=Have You Ever Loved A Woman
TTITLE3=Bye Bye Bird
TTITLE4=Hoochie Coochie Man
TTITLE5=Intro - Look At The Girl
TTITLE6=Wish You Were Mine
TTITLE7=Start Walkin'
EXTD=YEAR: 1969
EXTT0=Recorded at the Flamingo Club, London, April 1966\nwith Eric Clapton and Jack Bruce
EXTT1=Recorded at the Flamingo Club, London, April 1966\nwith Eric Clapton and Jack Bruce
EXTT2=Recorded at the Flamingo Club, London, April 1966\nwith Eric Clapton and Jack Bruce
EXTT3=Recorded at the Flamingo Club, London, April 1966\nwith Eric Clapton and Jack Bruce
EXTT4=Recorded at the Flamingo Club, London, April 1966\nwith Eric Clapton and Jack Bruce
EXTT5=Recorded at Falmer College, Brighton, England, 25th May 1968\nwith Mick Taylor
EXTT6=Recorded in Sweden, Early December 1968\nwith Steve Thompson
EXTT7=Recorded at Falmer College, Brighton, England, 25th May 1968\nwith Mick Taylor
PLAYORDER=
